<svg width="16" height="16" viewBox="0 0 16 16" fill="none" xmlns="http://www.w3.org/2000/svg">
<path fill-rule="evenodd" clip-rule="evenodd" d="M10.8 3.95036C11.7884 4.52134 12.5787 5.38072 13.0651 6.4134C13.5514 7.44608 13.7106 8.60272 13.5212 9.72838C13.3319 10.854 12.803 11.895 12.0056 12.7117C11.2081 13.5284 10.1802 14.0819 9.05934 14.2981C7.93852 14.5143 6.77841 14.3828 5.73442 13.9212C4.69042 13.4596 3.81241 12.6901 3.218 11.7156C2.62359 10.7411 2.34117 9.60821 2.40858 8.46873C2.47599 7.32925 2.89001 6.23758 3.59517 5.33996C3.75677 5.13436 4.06717 5.16556 4.22957 5.37116C4.4525 5.65383 4.70397 5.90823 4.98397 6.13436C5.24957 6.34956 5.61277 6.09516 5.60237 5.75356L5.59997 5.59996C5.59997 4.86476 5.76477 4.16876 6.05997 3.54636C6.48713 2.64757 7.1818 1.90289 8.04877 1.41436C8.24637 1.30236 8.48877 1.40156 8.59037 1.60476C9.08 2.58705 9.84863 3.403 10.8 3.95036ZM11.2 9.59996C11.2 10.4487 10.8628 11.2626 10.2627 11.8627C9.66259 12.4628 8.84866 12.8 7.99997 12.8C6.46957 12.8 5.18397 11.6816 4.87197 10.2544C4.79757 9.91116 5.22397 9.73996 5.52317 9.92396C5.9129 10.1643 6.34967 10.3181 6.80397 10.3752C7.04637 10.4056 7.22877 10.1832 7.21197 9.93996C7.12442 8.72911 7.50049 7.53026 8.26397 6.58636C8.30462 6.536 8.35811 6.49753 8.41879 6.47501C8.47947 6.45248 8.54509 6.44673 8.60877 6.45836C9.33825 6.59973 9.9958 6.99055 10.4686 7.56378C10.9414 8.13701 11.2 8.85691 11.2 9.59996Z" fill="white"/>
</svg>
