<svg width="16" height="20" viewBox="0 0 16 20" fill="none" xmlns="http://www.w3.org/2000/svg">
<g clip-path="url(#clip0_2395_385)">
<g clip-path="url(#clip1_2395_385)">
<path d="M8.00005 13C9.38076 13 10.5001 11.8807 10.5001 10.5C10.5001 9.11932 9.38076 8.00003 8.00005 8.00003C6.61934 8.00003 5.50005 9.11932 5.50005 10.5C5.50005 11.8807 6.61934 13 8.00005 13Z" fill="black"/>
<path fill-rule="evenodd" clip-rule="evenodd" d="M8.00005 5C4.36202 5 1.62431 7.53827 0.359153 10.4185C0.280347 10.5979 0.280347 10.8021 0.359153 10.9815C1.65017 13.9206 4.41753 16.0092 8.00005 16.0092C11.5826 16.0092 14.3499 13.9206 15.6409 10.9815C15.7198 10.8021 15.7198 10.5979 15.6409 10.4185C14.3758 7.53827 11.6381 5 8.00005 5ZM8.00005 14.6092C5.13313 14.6092 2.90407 13.0214 1.77097 10.6991C2.92821 8.29805 5.18409 6.4 8.00005 6.4C10.816 6.4 13.0719 8.29805 14.2291 10.6991C13.096 13.0214 10.867 14.6092 8.00005 14.6092Z" fill="black"/>
</g>
</g>
<defs>
<clipPath id="clip0_2395_385">
<rect width="16" height="20" fill="white"/>
</clipPath>
<clipPath id="clip1_2395_385">
<rect width="16" height="20" fill="white"/>
</clipPath>
</defs>
</svg>
