<svg width="165" height="37" viewBox="0 0 165 37" fill="none" xmlns="http://www.w3.org/2000/svg">
<path d="M147.376 8.80933C151.819 8.80933 155.812 9.55507 159.354 11.0466C162.897 12.5381 164.668 15.1637 164.668 18.9235V35.33H154.507L153.715 32.0207V31.7877C152.938 33.1859 151.291 34.2113 148.774 34.8639C146.288 35.5164 143.569 35.8427 140.617 35.8427C138.256 35.8427 135.894 35.33 133.533 34.3046C131.171 33.2481 129.99 31.0574 129.99 27.7327C129.99 22.4814 133.424 19.8557 140.291 19.8557C144.703 19.8557 147.78 19.8246 149.52 19.7625C151.26 19.6693 152.41 19.5139 152.969 19.2964C153.528 19.0478 153.823 18.6128 153.854 17.9913V17.3854C153.823 16.36 153.14 15.6143 151.804 15.1482C150.499 14.651 149.007 14.4024 147.329 14.4024C145.589 14.4335 144.098 14.7598 142.855 15.3812C141.643 16.0027 141.037 16.9504 141.037 18.2244H130.27C130.27 15.8628 131.202 13.9829 133.067 12.5847C134.931 11.1553 137.153 10.1765 139.732 9.64829C142.342 9.08898 144.89 8.80933 147.376 8.80933ZM146.677 29.0377C148.976 29.0377 150.716 28.525 151.897 27.4996C153.078 26.4742 153.715 25.1692 153.808 23.5844V22.9319C152.627 23.4291 150.747 23.6777 148.168 23.6777C145.496 23.6777 143.616 23.8641 142.528 24.237C141.472 24.6098 140.928 25.2934 140.897 26.2878C140.99 27.22 141.472 27.9191 142.342 28.3852C143.243 28.8202 144.688 29.0377 146.677 29.0377Z" fill="#8144DB" fill-opacity="0.85"/>
<path d="M116.212 9.08894C119.878 9.08894 122.799 10.3319 124.974 12.8177C127.18 15.3035 128.283 19.3119 128.283 24.8428V35.3299H117.563V24.9827C117.563 23.0251 117.455 21.4248 117.237 20.1819C117.02 18.939 116.491 17.8981 115.652 17.0591C114.813 16.2201 113.508 15.8007 111.737 15.8007C109.873 15.8007 108.49 16.2357 107.589 17.1057C106.688 17.9447 106.113 19.0012 105.864 20.2751C105.616 21.5181 105.492 23.0717 105.492 24.9361V35.3299H94.7714V0.839111H105.492V13.0041C107.853 10.394 111.426 9.08894 116.212 9.08894Z" fill="#8144DB" fill-opacity="0.85"/>
<path d="M58.4781 22.7919C58.4781 20.1818 59.255 17.8358 60.8086 15.754C62.3622 13.641 64.4907 11.9942 67.1941 10.8134C69.8974 9.63262 72.8804 9.04224 76.143 9.04224C79.2503 9.04224 81.9847 9.52386 84.3463 10.4871C86.7389 11.4193 88.6654 12.7399 90.1258 14.4489C91.5862 16.1579 92.5495 18.131 93.0156 20.3683H82.2954C81.9536 18.97 81.239 17.8514 80.1514 17.0124C79.0639 16.1734 77.7433 15.754 76.1896 15.754C74.1699 15.754 72.5231 16.4065 71.2491 17.7115C69.9751 18.9855 69.3381 20.679 69.3381 22.7919C69.3381 24.8428 69.9595 26.5362 71.2025 27.8724C72.4454 29.1774 74.0767 29.8299 76.0964 29.8299C77.6811 29.8299 79.0173 29.4105 80.1048 28.5715C81.1924 27.7325 81.907 26.6294 82.2488 25.2622H92.9689C92.6271 27.3752 91.695 29.2862 90.1724 30.9952C88.6498 32.7042 86.6612 34.0558 84.2064 35.0502C81.7827 36.0445 79.0949 36.5417 76.143 36.5417C72.9115 36.5417 69.944 35.9513 67.2407 34.7705C64.5373 33.5587 62.3933 31.9118 60.8086 29.8299C59.255 27.717 58.4781 25.371 58.4781 22.7919Z" fill="#8144DB" fill-opacity="0.85"/>
<path d="M46.0109 9.92773H56.731V35.3297H46.0109V32.1603C43.6494 34.8326 40.0605 36.1687 35.2442 36.1687C31.4222 36.1687 28.4548 34.9413 26.3418 32.4866C24.26 30.0318 23.219 26.0079 23.219 20.4148V9.92773H33.9391V20.275C33.9391 22.2326 34.0479 23.8328 34.2654 25.0757C34.4829 26.3186 35.0112 27.3596 35.8501 28.1985C36.6891 29.0375 37.9941 29.457 39.7653 29.457C42.22 29.457 43.8669 28.618 44.7059 26.9401C45.5759 25.2311 46.0109 23.0094 46.0109 20.275V9.92773Z" fill="#8144DB" fill-opacity="0.85"/>
<path d="M21.0207 12.9107V20.2284H15.7539V35.3298H5.03379V20.2284H0V12.9107H5.03379V9.55488C5.03379 5.85722 6.33885 3.34032 8.94897 2.00419C11.5591 0.668065 14.4955 0 17.7581 0C18.9078 0 19.9332 0.0621452 20.8343 0.186437V8.71592C19.2807 8.71592 18.162 8.80914 17.4784 8.99557C16.7948 9.18201 16.3288 9.55489 16.0802 10.1142C15.8627 10.6424 15.7539 11.5125 15.7539 12.7243V12.9107H21.0207Z" fill="#8144DB" fill-opacity="0.85"/>
</svg>
