<svg width="20" height="20" viewBox="0 0 20 20" fill="none" xmlns="http://www.w3.org/2000/svg">
<path d="M10.0148 3.59181C12.0702 1.4693 15.4027 1.4695 17.4583 3.59181C19.5139 5.71479 19.5139 9.1573 17.4583 11.2803L9.98354 19L2.53906 11.3125L2.54004 11.3106L2.53418 11.3047C0.552414 9.25761 0.490635 5.97853 2.34863 3.8545L2.53418 3.65236C4.58023 1.53925 7.89836 1.53935 9.94447 3.65236L9.94936 3.65822L10.0148 3.59181ZM16.3089 4.70509C14.882 3.23187 12.5909 3.23186 11.1642 4.70509L11.1545 4.71486L9.85072 6.03907L8.76574 4.73732C7.39116 3.34777 5.23301 3.31246 3.81936 4.63282L3.68361 4.76564C2.23879 6.25821 2.23884 8.6987 3.68361 10.1914L4.48734 10.9951L4.47757 11.0137L9.98256 16.6992L16.3089 10.167L16.4407 10.0234C17.7195 8.56054 17.7195 6.31152 16.4407 4.84864L16.3089 4.70509Z" fill="black"/>
</svg>
