<svg width="20" height="20" viewBox="0 0 20 20" fill="none" xmlns="http://www.w3.org/2000/svg">
<path d="M14.1667 9.99667C14.1667 10.9133 14.9167 11.6633 15.8333 11.6633C16.75 11.6633 17.5 10.9133 17.5 9.99667C17.5 9.08 16.75 8.33 15.8333 8.33C14.9167 8.33 14.1667 9.08 14.1667 9.99667ZM11.6667 9.99667C11.6667 9.08 10.9167 8.33 10 8.33C9.08333 8.33 8.33333 9.08 8.33333 9.99667C8.33333 10.9133 9.08333 11.6633 10 11.6633C10.9167 11.6633 11.6667 10.9133 11.6667 9.99667ZM4.16667 8.33C5.08333 8.33 5.83333 9.08 5.83333 9.99667C5.83333 10.9133 5.08333 11.6633 4.16667 11.6633C3.25 11.6633 2.5 10.9133 2.5 9.99667C2.5 9.08 3.25 8.33 4.16667 8.33Z" fill="black"/>
</svg>
