<svg width="271" height="84" viewBox="0 0 271 84" fill="none" xmlns="http://www.w3.org/2000/svg">
<path d="M248.915 79.6265C247.817 79.6265 246.866 79.3931 246.063 78.9264C245.26 78.4597 244.639 77.7974 244.2 76.9394C243.767 76.0746 243.551 75.0451 243.551 73.8509V73.8303C243.551 72.636 243.771 71.61 244.21 70.752C244.649 69.8872 245.27 69.2249 246.073 68.765C246.876 68.2983 247.824 68.065 248.915 68.065C250.006 68.065 250.953 68.2983 251.756 68.765C252.559 69.2249 253.181 69.8838 253.62 70.7417C254.059 71.5997 254.279 72.6292 254.279 73.8303V73.8509C254.279 75.0451 254.059 76.0746 253.62 76.9394C253.187 77.8042 252.57 78.47 251.767 78.9367C250.971 79.3965 250.02 79.6265 248.915 79.6265ZM248.915 77.5468C249.491 77.5468 249.982 77.4027 250.387 77.1144C250.799 76.8193 251.115 76.3972 251.334 75.8481C251.554 75.2922 251.664 74.6264 251.664 73.8509V73.8303C251.664 73.0478 251.551 72.3821 251.324 71.833C251.104 71.2839 250.789 70.8653 250.377 70.577C249.972 70.2819 249.485 70.1343 248.915 70.1343C248.345 70.1343 247.855 70.2819 247.443 70.577C247.031 70.8653 246.715 71.2839 246.496 71.833C246.276 72.3821 246.166 73.0478 246.166 73.8303V73.8509C246.166 74.6264 246.276 75.2922 246.496 75.8481C246.715 76.3972 247.031 76.8193 247.443 77.1144C247.855 77.4027 248.345 77.5468 248.915 77.5468Z" fill="#A266D0"/>
<path d="M242.933 70.2579H237.981V79.4H235.417V68.2812H242.933V70.2579Z" fill="#A266D0"/>
<path d="M228.858 79.6265C227.753 79.6265 226.803 79.3931 226.007 78.9264C225.217 78.4528 224.606 77.7871 224.174 76.9291C223.748 76.0643 223.536 75.0451 223.536 73.8715V73.8612C223.536 72.6944 223.748 71.6786 224.174 70.8138C224.606 69.9421 225.21 69.2661 225.986 68.7856C226.768 68.3052 227.688 68.065 228.745 68.065C229.802 68.065 230.711 68.2983 231.473 68.765C232.242 69.2249 232.832 69.8735 233.244 70.7108C233.663 71.5482 233.872 72.5228 233.872 73.6347V74.4789H224.812V72.7596H232.626L231.401 74.3656V73.3567C231.401 72.6223 231.288 72.0115 231.061 71.5242C230.842 71.0369 230.533 70.6731 230.135 70.4329C229.744 70.1858 229.287 70.0622 228.766 70.0622C228.251 70.0622 227.791 70.1892 227.386 70.4432C226.981 70.6971 226.662 71.0712 226.429 71.5653C226.202 72.0526 226.089 72.6498 226.089 73.3567V74.3759C226.089 75.0554 226.202 75.6388 226.429 76.1261C226.655 76.6066 226.981 76.9772 227.407 77.238C227.832 77.4919 228.333 77.6189 228.91 77.6189C229.363 77.6189 229.751 77.5537 230.073 77.4233C230.403 77.286 230.67 77.1179 230.876 76.9188C231.089 76.7198 231.236 76.5208 231.319 76.3217L231.339 76.2497H233.759L233.738 76.3526C233.649 76.737 233.484 77.1213 233.244 77.5057C233.004 77.89 232.681 78.2435 232.276 78.5661C231.878 78.8818 231.394 79.1392 230.825 79.3382C230.255 79.5304 229.6 79.6265 228.858 79.6265Z" fill="#A266D0"/>
<path d="M206.609 79.4V68.2812H209.173V77.3924H212.673V68.2812H215.237V77.3924H218.737V68.2812H221.301V79.4H206.609ZM220.673 82.3341V79.4H218.768V77.4233H223.03V82.3341H220.673Z" fill="#A266D0"/>
<path d="M196.88 83.2298C196.688 83.2298 196.492 83.2229 196.293 83.2092C196.101 83.1955 195.926 83.1783 195.768 83.1577V81.1914C195.871 81.2051 195.991 81.2154 196.128 81.2222C196.272 81.236 196.42 81.2428 196.571 81.2428C197.079 81.2428 197.487 81.1399 197.796 80.934C198.105 80.7349 198.335 80.3883 198.486 79.8942L198.63 79.4103L194.646 68.2812H197.436L200.308 77.969L199.731 77.0527H200.473L199.906 77.969L202.779 68.2812H205.476L201.482 79.6986C201.18 80.5771 200.823 81.2737 200.411 81.7885C200.006 82.3032 199.515 82.6704 198.939 82.8901C198.369 83.1166 197.683 83.2298 196.88 83.2298Z" fill="#A266D0"/>
<path d="M184.35 82.3341H182.002V77.3924H182.888C183.293 77.1522 183.591 76.7335 183.783 76.1364C183.976 75.5324 184.096 74.8564 184.144 74.1083L184.535 68.2812H192.936V77.3924H194.645V82.3341H192.298V79.4H184.35V82.3341ZM190.372 77.3924V70.2888H186.718L186.44 74.2421C186.398 74.8598 186.309 75.4295 186.172 75.9511C186.035 76.4727 185.842 76.912 185.595 77.2689V77.3924H190.372Z" fill="#A266D0"/>
<path d="M173.734 83.2298C173.542 83.2298 173.347 83.2229 173.148 83.2092C172.955 83.1955 172.78 83.1783 172.623 83.1577V81.1914C172.725 81.2051 172.846 81.2154 172.983 81.2222C173.127 81.236 173.275 81.2428 173.426 81.2428C173.933 81.2428 174.342 81.1399 174.651 80.934C174.96 80.7349 175.189 80.3883 175.34 79.8942L175.485 79.4103L171.5 68.2812H174.29L177.163 77.969L176.586 77.0527H177.327L176.761 77.969L179.634 68.2812H182.331L178.336 79.6986C178.034 80.5771 177.677 81.2737 177.266 81.7885C176.861 82.3032 176.37 82.6704 175.793 82.8901C175.224 83.1166 174.537 83.2298 173.734 83.2298Z" fill="#A266D0"/>
<path d="M165.858 79.6265C164.677 79.6265 163.682 79.3725 162.872 78.8647C162.069 78.3499 161.458 77.5949 161.04 76.5997C160.628 75.6045 160.422 74.3794 160.422 72.9243V72.9037C160.422 71.4212 160.539 70.1446 160.772 69.0739C161.005 67.9964 161.362 67.111 161.843 66.4178C162.33 65.7177 162.948 65.1926 163.696 64.8426C164.444 64.4857 165.329 64.2901 166.352 64.2558L167.587 64.2043C168.102 64.1906 168.617 64.1425 169.132 64.0602C169.653 63.9709 170.11 63.8508 170.501 63.6998V65.7589C170.302 65.8961 169.945 66.0162 169.43 66.1192C168.916 66.2153 168.353 66.2771 167.742 66.3045L166.537 66.3457C165.666 66.38 164.952 66.5447 164.396 66.8399C163.84 67.1281 163.411 67.5674 163.109 68.1576C162.807 68.7479 162.587 69.5166 162.45 70.4638L162.43 70.6388H162.563C162.804 70.1927 163.106 69.8186 163.469 69.5166C163.833 69.2078 164.255 68.9744 164.736 68.8165C165.216 68.6587 165.745 68.5798 166.321 68.5798C167.316 68.5798 168.181 68.7994 168.916 69.2386C169.65 69.6779 170.216 70.2956 170.614 71.0918C171.019 71.8811 171.222 72.8179 171.222 73.9024V73.923C171.222 75.0897 171.005 76.1021 170.573 76.96C170.141 77.8111 169.523 78.47 168.72 78.9367C167.924 79.3966 166.97 79.6265 165.858 79.6265ZM165.827 77.5572C166.417 77.5572 166.918 77.4165 167.33 77.1351C167.749 76.8468 168.068 76.435 168.288 75.8996C168.507 75.3643 168.617 74.7226 168.617 73.9744V73.9538C168.617 73.24 168.504 72.6326 168.277 72.1316C168.058 71.6306 167.738 71.2496 167.32 70.9888C166.908 70.7212 166.41 70.5873 165.827 70.5873C165.237 70.5873 164.732 70.7212 164.314 70.9888C163.895 71.2496 163.576 71.6306 163.356 72.1316C163.137 72.6326 163.027 73.24 163.027 73.9538V73.9744C163.027 74.7226 163.137 75.3643 163.356 75.8996C163.576 76.435 163.895 76.8468 164.314 77.1351C164.732 77.4165 165.237 77.5572 165.827 77.5572Z" fill="#A266D0"/>
<path d="M149.744 79.6265C148.646 79.6265 147.695 79.3931 146.892 78.9264C146.089 78.4597 145.468 77.7974 145.029 76.9394C144.597 76.0746 144.38 75.0451 144.38 73.8509V73.8303C144.38 72.636 144.6 71.61 145.039 70.752C145.479 69.8872 146.1 69.2249 146.903 68.765C147.706 68.2983 148.653 68.065 149.744 68.065C150.835 68.065 151.783 68.2983 152.586 68.765C153.389 69.2249 154.01 69.8838 154.449 70.7417C154.888 71.5997 155.108 72.6292 155.108 73.8303V73.8509C155.108 75.0451 154.888 76.0746 154.449 76.9394C154.017 77.8042 153.399 78.47 152.596 78.9367C151.8 79.3965 150.849 79.6265 149.744 79.6265ZM149.744 77.5468C150.321 77.5468 150.811 77.4027 151.216 77.1144C151.628 76.8193 151.944 76.3972 152.164 75.8481C152.383 75.2922 152.493 74.6264 152.493 73.8509V73.8303C152.493 73.0478 152.38 72.3821 152.153 71.833C151.934 71.2839 151.618 70.8653 151.206 70.577C150.801 70.2819 150.314 70.1343 149.744 70.1343C149.175 70.1343 148.684 70.2819 148.272 70.577C147.86 70.8653 147.544 71.2839 147.325 71.833C147.105 72.3821 146.995 73.0478 146.995 73.8303V73.8509C146.995 74.6264 147.105 75.2922 147.325 75.8481C147.544 76.3972 147.86 76.8193 148.272 77.1144C148.684 77.4027 149.175 77.5468 149.744 77.5468Z" fill="#A266D0"/>
<path d="M143.762 70.2579H138.81V79.4H136.246V68.2812H143.762V70.2579Z" fill="#A266D0"/>
<path d="M129.687 79.6265C128.582 79.6265 127.632 79.3931 126.836 78.9264C126.046 78.4528 125.436 77.7871 125.003 76.9291C124.578 76.0643 124.365 75.0451 124.365 73.8715V73.8612C124.365 72.6944 124.578 71.6786 125.003 70.8138C125.436 69.9421 126.04 69.2661 126.815 68.7856C127.598 68.3052 128.517 68.065 129.574 68.065C130.631 68.065 131.541 68.2983 132.302 68.765C133.071 69.2249 133.661 69.8735 134.073 70.7108C134.492 71.5482 134.701 72.5228 134.701 73.6347V74.4789H125.641V72.7596H133.456L132.23 74.3656V73.3567C132.23 72.6223 132.117 72.0115 131.891 71.5242C131.671 71.0369 131.362 70.6731 130.964 70.4329C130.573 70.1858 130.116 70.0622 129.595 70.0622C129.08 70.0622 128.62 70.1892 128.215 70.4432C127.81 70.6971 127.491 71.0712 127.258 71.5653C127.031 72.0526 126.918 72.6498 126.918 73.3567V74.3759C126.918 75.0554 127.031 75.6388 127.258 76.1261C127.484 76.6066 127.81 76.9772 128.236 77.238C128.661 77.4919 129.162 77.6189 129.739 77.6189C130.192 77.6189 130.58 77.5537 130.902 77.4233C131.232 77.286 131.499 77.1179 131.705 76.9188C131.918 76.7198 132.066 76.5208 132.148 76.3217L132.169 76.2497H134.588L134.567 76.3526C134.478 76.737 134.313 77.1213 134.073 77.5057C133.833 77.89 133.51 78.2435 133.105 78.5661C132.707 78.8818 132.224 79.1392 131.654 79.3382C131.084 79.5304 130.429 79.6265 129.687 79.6265Z" fill="#A266D0"/>
<path d="M108.118 79.4V68.2812H110.682V77.3924H114.182V68.2812H116.746V77.3924H120.246V68.2812H122.81V79.4H108.118Z" fill="#A266D0"/>
<path d="M106.048 79.4H103.495V74.8392H103.361C103.052 75.1138 102.668 75.3265 102.208 75.4775C101.748 75.6217 101.233 75.6937 100.664 75.6937C99.3528 75.6937 98.337 75.33 97.6164 74.6024C96.9026 73.868 96.5457 72.8866 96.5457 71.658V68.2812H99.1092V71.3903C99.1092 72.0835 99.291 72.6155 99.6548 72.9861C100.019 73.3567 100.55 73.542 101.251 73.542C101.594 73.542 101.909 73.5111 102.198 73.4494C102.486 73.3807 102.74 73.2915 102.96 73.1817C103.179 73.065 103.358 72.9346 103.495 72.7905V68.2812H106.048V79.4Z" fill="#A266D0"/>
<path d="M87.1453 83.2298C86.9531 83.2298 86.7575 83.2229 86.5585 83.2092C86.3663 83.1955 86.1913 83.1783 86.0334 83.1577V81.1914C86.1364 81.2051 86.2565 81.2154 86.3938 81.2222C86.5379 81.236 86.6855 81.2428 86.8365 81.2428C87.3444 81.2428 87.7527 81.1399 88.0616 80.934C88.3704 80.7349 88.6004 80.3883 88.7514 79.8942L88.8955 79.4103L84.9113 68.2812H87.7013L90.5736 77.969L89.9971 77.0527H90.7383L90.1721 77.969L93.0445 68.2812H95.7418L91.7473 79.6986C91.4453 80.5771 91.0884 81.2737 90.6766 81.7885C90.2716 82.3032 89.7809 82.6704 89.2043 82.8901C88.6347 83.1166 87.9483 83.2298 87.1453 83.2298Z" fill="#A266D0"/>
<path d="M77.5493 74.4892C77.4807 75.553 77.3228 76.459 77.0758 77.2071C76.8287 77.9552 76.4615 78.5249 75.9742 78.9161C75.4869 79.3073 74.8417 79.5029 74.0387 79.5029C73.8122 79.5029 73.6131 79.4892 73.4416 79.4618C73.2768 79.4343 73.1533 79.4069 73.0709 79.3794V77.1865C73.1258 77.2003 73.2116 77.214 73.3283 77.2277C73.445 77.2414 73.572 77.2483 73.7092 77.2483C74.0661 77.2483 74.351 77.1248 74.5637 76.8777C74.7765 76.6306 74.9344 76.2874 75.0373 75.8482C75.1403 75.402 75.2089 74.8873 75.2432 74.3039L75.6241 68.2812H83.7573V79.4H81.2041V70.2682H77.8479L77.5493 74.4892Z" fill="#A266D0"/>
<path d="M65.3068 79.4V75.6628H63.814L61.2093 79.4H58.306L61.2916 75.251C60.5298 75.0245 59.9292 74.6333 59.49 74.0774C59.0507 73.5146 58.8311 72.8488 58.8311 72.0801V72.0595C58.8311 71.284 59.0095 70.6148 59.3664 70.052C59.7302 69.4892 60.2347 69.0533 60.8798 68.7445C61.5319 68.4356 62.2937 68.2812 63.1654 68.2812H67.8291V79.4H65.3068ZM63.361 73.7788H65.3068V70.2476H63.361C62.7501 70.2476 62.2697 70.4089 61.9196 70.7314C61.5765 71.054 61.4049 71.4933 61.4049 72.0492V72.0698C61.4049 72.564 61.5799 72.9724 61.9299 73.2949C62.28 73.6175 62.757 73.7788 63.361 73.7788Z" fill="#A266D0"/>
<path d="M50.7999 74.4892C50.7313 75.553 50.5734 76.459 50.3264 77.2071C50.0793 77.9552 49.7121 78.5249 49.2248 78.9161C48.7375 79.3073 48.0923 79.5029 47.2893 79.5029C47.0628 79.5029 46.8637 79.4892 46.6922 79.4618C46.5274 79.4343 46.4039 79.4069 46.3215 79.3794V77.1865C46.3764 77.2003 46.4622 77.214 46.5789 77.2277C46.6956 77.2414 46.8226 77.2483 46.9598 77.2483C47.3167 77.2483 47.6016 77.1248 47.8143 76.8777C48.0271 76.6306 48.185 76.2874 48.2879 75.8482C48.3909 75.402 48.4595 74.8873 48.4938 74.3039L48.8747 68.2812H57.0079V79.4H54.4547V70.2682H51.0985L50.7999 74.4892Z" fill="#A266D0"/>
<path d="M33.1635 82.3341H30.7544V77.1659H31.8148C32.1648 76.9395 32.4428 76.6512 32.6487 76.3011C32.8546 75.9511 33.009 75.529 33.112 75.0348C33.2149 74.5338 33.2836 73.9538 33.3179 73.295L33.8532 64.544H43.9837V77.1659H45.8369V82.3341H43.4278V79.4H33.1635V82.3341ZM35.7682 73.4494C35.7338 73.9985 35.6824 74.4961 35.6137 74.9422C35.552 75.3814 35.4559 75.7727 35.3255 76.1158C35.1951 76.459 35.0166 76.7679 34.7901 77.0424V77.1659H41.3379V66.7781H36.2006L35.7682 73.4494Z" fill="#A266D0"/>
<path d="M248.442 10.26C254.162 10.26 259.302 11.22 263.862 13.14C268.422 15.06 270.702 18.44 270.702 23.28V44.4H257.622L256.602 40.14V39.84C255.602 41.64 253.482 42.96 250.242 43.8C247.042 44.64 243.542 45.06 239.742 45.06C236.702 45.06 233.662 44.4 230.622 43.08C227.582 41.72 226.062 38.9 226.062 34.62C226.062 27.86 230.482 24.48 239.322 24.48C245.002 24.48 248.962 24.44 251.202 24.36C253.442 24.24 254.922 24.04 255.642 23.76C256.362 23.44 256.742 22.88 256.782 22.08V21.3C256.742 19.98 255.862 19.02 254.142 18.42C252.462 17.78 250.542 17.46 248.382 17.46C246.142 17.5 244.222 17.92 242.622 18.72C241.062 19.52 240.282 20.74 240.282 22.38H226.422C226.422 19.34 227.622 16.92 230.022 15.12C232.422 13.28 235.282 12.02 238.602 11.34C241.962 10.62 245.242 10.26 248.442 10.26ZM247.542 36.3C250.502 36.3 252.742 35.64 254.262 34.32C255.782 33 256.602 31.32 256.722 29.28V28.44C255.202 29.08 252.782 29.4 249.462 29.4C246.022 29.4 243.602 29.64 242.202 30.12C240.842 30.6 240.142 31.48 240.102 32.76C240.222 33.96 240.842 34.86 241.962 35.46C243.122 36.02 244.982 36.3 247.542 36.3Z" fill="url(#paint0_linear_2478_10022)"/>
<path d="M223.52 11.7V44.4H209.72V33.18C207.36 35.66 203.94 36.9 199.46 36.9C186.54 36.9 180.08 30.62 180.08 18.06V11.7H193.88V18.36C193.88 20.68 194.06 22.56 194.42 24C194.78 25.4 195.54 26.52 196.7 27.36C197.86 28.16 199.6 28.56 201.92 28.56C204.36 28.56 206.14 28.16 207.26 27.36C208.38 26.52 209.06 25.46 209.3 24.18C209.58 22.9 209.72 21.04 209.72 18.6V11.7H223.52Z" fill="url(#paint1_linear_2478_10022)"/>
<path d="M155.123 10.32C159.443 10.32 163.323 11.08 166.763 12.6C170.243 14.12 172.963 16.24 174.923 18.96C176.883 21.64 177.863 24.66 177.863 28.02C177.863 31.34 176.883 34.36 174.923 37.08C172.963 39.76 170.243 41.86 166.763 43.38C163.323 44.9 159.443 45.66 155.123 45.66C151.523 45.66 148.083 45.08 144.803 43.92C141.563 42.72 138.803 41.06 136.523 38.94C134.283 36.82 132.783 34.42 132.023 31.74H128.723V44.4H114.923V11.64H128.723V22.74H132.503C133.503 20.3 135.123 18.14 137.363 16.26C139.643 14.38 142.323 12.92 145.403 11.88C148.483 10.84 151.723 10.32 155.123 10.32ZM155.123 37.08C156.723 37.08 158.203 36.72 159.563 36C160.963 35.28 162.063 34.24 162.863 32.88C163.703 31.52 164.123 29.9 164.123 28.02C164.123 25.22 163.263 23.02 161.543 21.42C159.823 19.78 157.683 18.96 155.123 18.96C153.563 18.96 152.043 19.32 150.563 20.04C149.083 20.76 147.863 21.82 146.903 23.22C145.943 24.58 145.463 26.18 145.463 28.02C145.463 29.86 145.923 31.48 146.843 32.88C147.803 34.24 149.023 35.28 150.503 36C151.983 36.72 153.523 37.08 155.123 37.08Z" fill="url(#paint2_linear_2478_10022)"/>
<path d="M95.2257 20.22C101.146 20.22 105.486 21.24 108.246 23.28C111.046 25.32 112.446 28.34 112.446 32.34V32.52C112.446 36.32 111.326 39.26 109.086 41.34C106.886 43.38 103.106 44.4 97.7457 44.4C96.6257 44.4 95.8057 44.38 95.2857 44.34V44.4H68.3456L68.1656 11.7H81.9657L82.0257 20.22H95.1057H95.2257ZM93.6057 36.54C95.1257 36.54 96.3257 36.46 97.2057 36.3C98.0857 36.14 98.8256 35.74 99.4257 35.1C100.026 34.46 100.326 33.46 100.326 32.1C100.326 30.7 100.006 29.7 99.3657 29.1C98.7657 28.5 98.0457 28.16 97.2057 28.08C96.3657 27.96 95.0657 27.9 93.3057 27.9H93.2457H82.0257L82.0857 36.48C88.0457 36.48 91.3857 36.5 92.1057 36.54H93.6057Z" fill="url(#paint3_linear_2478_10022)"/>
<path d="M65.88 28.2C65.88 31.4 64.76 34.3 62.52 36.9C60.28 39.46 57.18 41.5 53.22 43.02C49.3 44.5 44.88 45.24 39.96 45.24V45.3H39.66V54.3H25.86V45.3H25.5V45.24C20.98 45.2 16.76 44.44 12.84 42.96C8.92 41.44 5.8 39.4 3.48 36.84C1.16 34.24 0 31.36 0 28.2C0 25.12 1.1 22.32 3.3 19.8C5.54 17.24 8.52 15.2 12.24 13.68C16 12.16 20.06 11.32 24.42 11.16V11.1H25.86V0H39.66V11.1H39.96C44.88 11.14 49.3 11.9 53.22 13.38C57.18 14.86 60.28 16.9 62.52 19.5C64.76 22.06 65.88 24.96 65.88 28.2ZM13.62 28.2C13.62 29.92 14.24 31.34 15.48 32.46C16.76 33.58 18.32 34.4 20.16 34.92C22.04 35.44 23.92 35.7 25.8 35.7H25.86V20.7H25.8C23.88 20.7 22 20.96 20.16 21.48C18.32 21.96 16.76 22.76 15.48 23.88C14.24 25 13.62 26.44 13.62 28.2ZM39.9 35.7C43.1 35.7 45.92 35.08 48.36 33.84C50.84 32.6 52.08 30.72 52.08 28.2C52.08 25.64 50.86 23.76 48.42 22.56C45.98 21.32 43.14 20.7 39.9 20.7H39.66V35.7H39.9Z" fill="url(#paint4_linear_2478_10022)"/>
<defs>
<linearGradient id="paint0_linear_2478_10022" x1="135.805" y1="-13.6" x2="135.805" y2="69.4" gradientUnits="userSpaceOnUse">
<stop stop-color="#C48BF1"/>
<stop offset="1" stop-color="#A266D0"/>
</linearGradient>
<linearGradient id="paint1_linear_2478_10022" x1="135.805" y1="-13.6" x2="135.805" y2="69.4" gradientUnits="userSpaceOnUse">
<stop stop-color="#C48BF1"/>
<stop offset="1" stop-color="#A266D0"/>
</linearGradient>
<linearGradient id="paint2_linear_2478_10022" x1="135.805" y1="-13.6" x2="135.805" y2="69.4" gradientUnits="userSpaceOnUse">
<stop stop-color="#C48BF1"/>
<stop offset="1" stop-color="#A266D0"/>
</linearGradient>
<linearGradient id="paint3_linear_2478_10022" x1="135.805" y1="-13.6" x2="135.805" y2="69.4" gradientUnits="userSpaceOnUse">
<stop stop-color="#C48BF1"/>
<stop offset="1" stop-color="#A266D0"/>
</linearGradient>
<linearGradient id="paint4_linear_2478_10022" x1="135.805" y1="-13.6" x2="135.805" y2="69.4" gradientUnits="userSpaceOnUse">
<stop stop-color="#C48BF1"/>
<stop offset="1" stop-color="#A266D0"/>
</linearGradient>
</defs>
</svg>
