<svg width="76" height="17" viewBox="0 0 76 17" fill="none" xmlns="http://www.w3.org/2000/svg">
<path d="M68.0191 4.06573C70.0699 4.06573 71.9128 4.40992 73.5477 5.09829C75.1826 5.78667 76 6.9985 76 8.73379V16.3059H71.3104L70.9447 14.7786V14.671C70.5862 15.3164 69.8261 15.7897 68.6645 16.0908C67.5172 16.392 66.2623 16.5426 64.8999 16.5426C63.81 16.5426 62.7201 16.3059 61.6301 15.8327C60.5402 15.3451 59.9952 14.334 59.9952 12.7995C59.9952 10.3759 61.5799 9.16402 64.7493 9.16402C66.7858 9.16402 68.2056 9.14968 69.0087 9.121C69.8118 9.07798 70.3424 9.00627 70.6005 8.90588C70.8587 8.79115 70.9949 8.59037 71.0093 8.30355V8.0239C70.9949 7.55064 70.6794 7.20645 70.0628 6.99133C69.4604 6.76187 68.772 6.64714 67.9976 6.64714C67.1945 6.66148 66.5061 6.81207 65.9325 7.09889C65.3732 7.38571 65.0935 7.82312 65.0935 8.41111H60.1243C60.1243 7.32118 60.5545 6.45354 61.415 5.80818C62.2755 5.14849 63.3009 4.69674 64.4912 4.45294C65.6959 4.1948 66.8718 4.06573 68.0191 4.06573ZM67.6965 13.4018C68.7577 13.4018 69.5608 13.1652 70.1058 12.692C70.6507 12.2187 70.9447 11.6164 70.9878 10.885V10.5838C70.4428 10.8133 69.5752 10.928 68.3848 10.928C67.1515 10.928 66.2839 11.014 65.7819 11.1861C65.2943 11.3582 65.0433 11.6737 65.029 12.1327C65.072 12.5629 65.2943 12.8856 65.6959 13.1007C66.1118 13.3015 66.7786 13.4018 67.6965 13.4018Z" fill="#141414"/>
<path d="M53.6358 4.19479C55.328 4.19479 56.6761 4.76844 57.68 5.91574C58.6982 7.06303 59.2073 8.91305 59.2073 11.4658V16.3059H54.2596V11.5303C54.2596 10.6268 54.2094 9.88825 54.109 9.3146C54.0087 8.74096 53.7649 8.26052 53.3776 7.87331C52.9904 7.4861 52.3881 7.29249 51.5706 7.29249C50.7102 7.29249 50.072 7.49327 49.6561 7.89482C49.2402 8.28204 48.9749 8.76964 48.8602 9.35763C48.7454 9.93127 48.6881 10.6483 48.6881 11.5088V16.3059H43.7404V0.387207H48.6881V6.00179C49.778 4.79712 51.4272 4.19479 53.6358 4.19479Z" fill="#141414"/>
<path d="M26.9897 10.5193C26.9897 9.31461 27.3483 8.23185 28.0653 7.27099C28.7824 6.29579 29.7648 5.53571 31.0124 4.99074C32.2601 4.44578 33.6369 4.17329 35.1427 4.17329C36.5768 4.17329 37.8389 4.39558 38.9288 4.84016C40.0331 5.27039 40.9222 5.8799 41.5963 6.66866C42.2703 7.45743 42.7149 8.36809 42.93 9.40066H37.9823C37.8245 8.75531 37.4947 8.23902 36.9927 7.85181C36.4908 7.4646 35.8813 7.27099 35.1642 7.27099C34.232 7.27099 33.472 7.57216 32.884 8.17449C32.296 8.76248 32.002 9.54407 32.002 10.5193C32.002 11.4658 32.2888 12.2474 32.8625 12.8641C33.4361 13.4664 34.189 13.7676 35.1212 13.7676C35.8526 13.7676 36.4693 13.5739 36.9712 13.1867C37.4732 12.7995 37.803 12.2904 37.9608 11.6594H42.9085C42.7507 12.6346 42.3205 13.5166 41.6178 14.3053C40.915 15.0941 39.9972 15.718 38.8643 16.1769C37.7456 16.6358 36.5051 16.8653 35.1427 16.8653C33.6512 16.8653 32.2816 16.5928 31.034 16.0478C29.7863 15.4885 28.7967 14.7284 28.0653 13.7676C27.3483 12.7924 26.9897 11.7096 26.9897 10.5193Z" fill="#141414"/>
<path d="M21.2356 4.58202H26.1834V16.3059H21.2356V14.8431C20.1457 16.0765 18.4893 16.6932 16.2664 16.6932C14.5024 16.6932 13.1329 16.1267 12.1577 14.9937C11.1968 13.8608 10.7164 12.0036 10.7164 9.42217V4.58202H15.6641V9.35763C15.6641 10.2611 15.7143 10.9997 15.8147 11.5733C15.9151 12.147 16.1589 12.6274 16.5461 13.0146C16.9333 13.4019 17.5356 13.5955 18.3531 13.5955C19.486 13.5955 20.2461 13.2082 20.6333 12.4338C21.0349 11.6451 21.2356 10.6197 21.2356 9.35763V4.58202Z" fill="#141414"/>
<path d="M9.70182 5.95877V9.33612H7.27099V16.3059H2.32327V9.33612H0V5.95877H2.32327V4.40992C2.32327 2.70332 2.9256 1.54168 4.13026 0.925007C5.33493 0.308336 6.69017 0 8.19599 0C8.72662 0 9.19988 0.0286825 9.61577 0.0860474V4.02271C8.89871 4.02271 8.38243 4.06573 8.06692 4.15178C7.75142 4.23782 7.5363 4.40992 7.42157 4.66806C7.32118 4.91186 7.27099 5.31341 7.27099 5.87272V5.95877H9.70182Z" fill="#141414"/>
</svg>
