<svg width="24" height="24" viewBox="0 0 24 24" fill="none" xmlns="http://www.w3.org/2000/svg">
<g clip-path="url(#clip0_1845_734)">
<path fill-rule="evenodd" clip-rule="evenodd" d="M19.9398 -1.58995e-05C20.5248 -1.58995e-05 21.0003 0.475484 21.0003 1.06048V2.99998H22.9398C23.1496 2.99994 23.3547 3.06211 23.5291 3.17864C23.7035 3.29516 23.8395 3.46081 23.9198 3.65462C24.0001 3.84843 24.0211 4.06169 23.9801 4.26744C23.9392 4.47319 23.8382 4.66217 23.6898 4.81048L21.4998 7.00048C21.18 7.31954 20.747 7.49911 20.2953 7.49998H18.0903L12.7953 12.795C12.582 12.9937 12.3 13.1019 12.0085 13.0967C11.7171 13.0916 11.439 12.9735 11.2329 12.7674C11.0267 12.5613 10.9087 12.2832 10.9035 11.9918C10.8984 11.7003 11.0066 11.4182 11.2053 11.205L16.5003 5.90998V3.70498C16.5003 3.25348 16.6803 2.81998 16.9998 2.49898L19.1898 0.308984C19.2879 0.210046 19.4048 0.131636 19.5336 0.0783274C19.6623 0.0250184 19.8004 -0.00212348 19.9398 -0.0015159M3.75029 12C3.75013 10.7768 4.02197 9.56886 4.54613 8.46367C5.07029 7.35847 5.83364 6.38365 6.78093 5.6098C7.72822 4.83594 8.83574 4.28242 10.0233 3.9893C11.2108 3.69617 12.4487 3.67079 13.6473 3.91498C13.9382 3.97049 14.2392 3.90906 14.4851 3.74403C14.731 3.57899 14.9019 3.32366 14.9607 3.03344C15.0196 2.74321 14.9616 2.44148 14.7994 2.19372C14.6372 1.94596 14.3838 1.77214 14.0943 1.70998C11.8828 1.26036 9.58528 1.53522 7.54225 2.49381C5.49922 3.45241 3.81939 5.04373 2.75173 7.03195C1.68407 9.02016 1.28539 11.2995 1.61478 13.532C1.94416 15.7646 2.98409 17.8316 4.58043 19.4268C6.17677 21.022 8.24458 22.0604 10.4774 22.3882C12.7102 22.7159 14.9892 22.3156 16.9766 21.2464C18.9641 20.1773 20.5542 18.4963 21.5113 16.4526C22.4684 14.4089 22.7415 12.1112 22.2903 9.89998C22.2308 9.60758 22.0576 9.35078 21.8088 9.18608C21.56 9.02138 21.2559 8.96226 20.9635 9.02173C20.6711 9.08121 20.4143 9.2544 20.2496 9.50322C20.0849 9.75203 20.0258 10.0561 20.0853 10.3485C20.1943 10.8815 20.2493 11.432 20.2503 12C20.2503 14.188 19.3811 16.2864 17.8339 17.8336C16.2867 19.3808 14.1883 20.25 12.0003 20.25C9.81226 20.25 7.71384 19.3808 6.16666 17.8336C4.61949 16.2864 3.75029 14.188 3.75029 12ZM11.7963 8.25598C12.0943 8.24007 12.3737 8.10644 12.5732 7.88449C12.7726 7.66254 12.8757 7.37045 12.8598 7.07248C12.8439 6.77451 12.7102 6.49507 12.4883 6.29562C12.2664 6.09618 11.9743 5.99307 11.6763 6.00898C10.5242 6.07107 9.4144 6.46403 8.47993 7.14077C7.54546 7.81751 6.82592 8.74933 6.40754 9.82459C5.98916 10.8998 5.88967 12.0729 6.121 13.2033C6.35234 14.3336 6.90467 15.3733 7.71184 16.1978C8.519 17.0222 9.54675 17.5964 10.672 17.8517C11.7972 18.1069 12.9721 18.0323 14.056 17.6367C15.1398 17.2412 16.0867 16.5416 16.7831 15.6217C17.4794 14.7017 17.8958 13.6005 17.9823 12.45C18.0044 12.1524 17.9073 11.8583 17.7125 11.6322C17.5177 11.4062 17.2411 11.2668 16.9435 11.2447C16.646 11.2227 16.3518 11.3197 16.1258 11.5145C15.8998 11.7093 15.7604 11.9859 15.7383 12.2835C15.6836 13.0022 15.4229 13.6899 14.9874 14.2643C14.552 14.8387 13.9602 15.2754 13.283 15.5222C12.6058 15.769 11.8718 15.8154 11.1689 15.6558C10.466 15.4962 9.82396 15.1374 9.31968 14.6224C8.8154 14.1074 8.47023 13.458 8.32549 12.7518C8.18076 12.0457 8.24259 11.3129 8.50358 10.641C8.76457 9.96911 9.21366 9.38669 9.7971 8.96343C10.3805 8.54018 11.0736 8.29404 11.7933 8.25448" fill="black"/>
</g>
<defs>
<clipPath id="clip0_1845_734">
<rect width="24" height="24" fill="white"/>
</clipPath>
</defs>
</svg>
