<svg width="28" height="28" viewBox="0 0 28 28" fill="none" xmlns="http://www.w3.org/2000/svg">
<path d="M13 21.5C13 21.8978 13.158 22.2794 13.4393 22.5607C13.7206 22.842 14.1022 23 14.5 23C14.8978 23 15.2794 22.842 15.5607 22.5607C15.842 22.2794 16 21.8978 16 21.5V15H22.5C22.8978 15 23.2794 14.842 23.5607 14.5607C23.842 14.2794 24 13.8978 24 13.5C24 13.1022 23.842 12.7206 23.5607 12.4393C23.2794 12.158 22.8978 12 22.5 12H16V5.5C16 5.10218 15.842 4.72064 15.5607 4.43934C15.2794 4.15804 14.8978 4 14.5 4C14.1022 4 13.7206 4.15804 13.4393 4.43934C13.158 4.72064 13 5.10218 13 5.5V12H6.5C6.10218 12 5.72064 12.158 5.43934 12.4393C5.15804 12.7206 5 13.1022 5 13.5C5 13.8978 5.15804 14.2794 5.43934 14.5607C5.72064 14.842 6.10218 15 6.5 15H13V21.5Z" fill="white"/>
</svg>
